HIERARCHY
ROOT Hips
{
  OFFSET 0.0273292 -0.436096 0.279869
  CHANNELS 6 Xposition Yposition Zposition Zrotation Xrotation Yrotation
  JOINT LHipJoint
  {
    OFFSET 0 0 0
    CHANNELS 6 Xposition Yposition Zposition Zrotation Xrotation Yrotation
    JOINT LeftUpLeg
    {
      OFFSET 1.36306 -1.79463 0
      CHANNELS 6 Xposition Yposition Zposition Zrotation Xrotation Yrotation
      JOINT LeftLeg
      {
        OFFSET 2.44807 -6.72613 0.000295034
        CHANNELS 6 Xposition Yposition Zposition Zrotation Xrotation Yrotation
        JOINT LeftFoot
        {
          OFFSET 2.5622 -7.03959 3.59965e-05
          CHANNELS 6 Xposition Yposition Zposition Zrotation Xrotation Yrotation
          JOINT LeftToeBase
          {
            OFFSET 0.15764 -0.43311 2.32255
            CHANNELS 6 Xposition Yposition Zposition Zrotation Xrotation Yrotation
            End Site
            {
              OFFSET 0 0 0
            }
          }
        }
      }
    }
  }
  JOINT RHipJoint
  {
    OFFSET 0 0 0
    CHANNELS 6 Xposition Yposition Zposition Zrotation Xrotation Yrotation
    JOINT RightUpLeg
    {
      OFFSET -1.30552 -1.79463 0
      CHANNELS 6 Xposition Yposition Zposition Zrotation Xrotation Yrotation
      JOINT RightLeg
      {
        OFFSET -2.54234 -6.98562 -0.000396375
        CHANNELS 6 Xposition Yposition Zposition Zrotation Xrotation Yrotation
        JOINT RightFoot
        {
          OFFSET -2.56826 -7.05623 -4.47982e-05
          CHANNELS 6 Xposition Yposition Zposition Zrotation Xrotation Yrotation
          JOINT RightToeBase
          {
            OFFSET -0.16473 -0.45259 2.36315
            CHANNELS 6 Xposition Yposition Zposition Zrotation Xrotation Yrotation
            End Site
            {
              OFFSET 0 0 0
            }
          }
        }
      }
    }
  }
  JOINT LowerBack
  {
    OFFSET 0 0 0
    CHANNELS 6 Xposition Yposition Zposition Zrotation Xrotation Yrotation
    JOINT Spine
    {
      OFFSET 0.0282699 2.03559 0
      CHANNELS 6 Xposition Yposition Zposition Zrotation Xrotation Yrotation
      JOINT Spine1
      {
        OFFSET 0.05672 2.04885 -0.04275
        CHANNELS 6 Xposition Yposition Zposition Zrotation Xrotation Yrotation
        JOINT Neck
        {
          OFFSET 0 0 0
          CHANNELS 6 Xposition Yposition Zposition Zrotation Xrotation Yrotation
          JOINT Neck1
          {
            OFFSET -0.05417 1.74624 0.17202
            CHANNELS 6 Xposition Yposition Zposition Zrotation Xrotation Yrotation
            JOINT Head
            {
              OFFSET 0.10407 1.76136 -0.12397
              CHANNELS 6 Xposition Yposition Zposition Zrotation Xrotation Yrotation
              End Site
              {
                OFFSET 0 0 0
              }
            }
          }
        }
        JOINT LeftShoulder
        {
          OFFSET 0 0 0
          CHANNELS 6 Xposition Yposition Zposition Zrotation Xrotation Yrotation
          JOINT LeftArm
          {
            OFFSET 3.36241 1.20089 -0.311211
            CHANNELS 6 Xposition Yposition Zposition Zrotation Xrotation Yrotation
            JOINT LeftForeArm
            {
              OFFSET 4.983 0.000197398 0.000166057
              CHANNELS 6 Xposition Yposition Zposition Zrotation Xrotation Yrotation
              JOINT LeftHand
              {
                OFFSET 3.48356 0 1.87849e-05
                CHANNELS 6 Xposition Yposition Zposition Zrotation Xrotation Yrotation
                JOINT LeftFingerBase
                {
                  OFFSET 0 0 0
                  CHANNELS 6 Xposition Yposition Zposition Zrotation Xrotation Yrotation
                  JOINT LeftHandIndex1
                  {
                    OFFSET 0.71526 0 0
                    CHANNELS 6 Xposition Yposition Zposition Zrotation Xrotation Yrotation
                    End Site
                    {
                      OFFSET 0 0 0
                    }
                  }
                }
                JOINT LThumb
                {
                  OFFSET 0 0 0
                  CHANNELS 6 Xposition Yposition Zposition Zrotation Xrotation Yrotation
                  End Site
                  {
                    OFFSET 0 0 0
                  }
                }
              }
            }
          }
        }
        JOINT RightShoulder
        {
          OFFSET 0 0 0
          CHANNELS 6 Xposition Yposition Zposition Zrotation Xrotation Yrotation
          JOINT RightArm
          {
            OFFSET -3.1366 1.37405 -0.404651
            CHANNELS 6 Xposition Yposition Zposition Zrotation Xrotation Yrotation
            JOINT RightForeArm
            {
              OFFSET -5.2419 -5.8808e-05 -0.000165864
              CHANNELS 6 Xposition Yposition Zposition Zrotation Xrotation Yrotation
              JOINT RightHand
              {
                OFFSET -3.44417 0 -2.00002e-05
                CHANNELS 6 Xposition Yposition Zposition Zrotation Xrotation Yrotation
                JOINT RightFingerBase
                {
                  OFFSET 0 0 0
                  CHANNELS 6 Xposition Yposition Zposition Zrotation Xrotation Yrotation
                  JOINT RightHandIndex1
                  {
                    OFFSET -0.62253 0 0
                    CHANNELS 6 Xposition Yposition Zposition Zrotation Xrotation Yrotation
                    End Site
                    {
                      OFFSET 0 0 0
                    }
                  }
                }
                JOINT RThumb
                {
                  OFFSET 0 0 0
                  CHANNELS 6 Xposition Yposition Zposition Zrotation Xrotation Yrotation
                  End Site
                  {
                    OFFSET 0 0 0
                  }
                }
              }
            }
          }
        }
      }
    }
  }
}
MOTION
Frames:	5
Frame Time:	0.00833333
-0.0652029 1.97958 0.0645202 0.944096 1.97194 1.88269 0 0 0 6.21202e-17 -7.95139e-16 -0 1.36306 -1.79463 3.31937e-08 -18.1003 -29.8693 0.220799 2.44808 -6.72613 0.000301215 -15.3052 52.0901 24.45 2.56219 -7.0396 6.48033e-06 -1.94296 1.41338 0.486245 0.15764 -0.43311 2.32255 -1.59028e-15 3.18055e-15 -3.18055e-15 0 0 0 6.21202e-17 -7.95139e-16 -0 -1.30552 -1.79463 -1.49382e-08 20.9915 -15.6154 -1.57122 -2.53985 -6.98649 0.0242198 -1.79257 25.0889 -5.26946 -2.56826 -7.05623 4.952e-05 0.666664 -13.7902 5.02472 -0.16473 -0.45259 2.36315 9.93923e-17 1.98785e-16 -1.98785e-16 0 0 0 6.21202e-17 -7.95139e-16 -0 0.0282699 2.03559 3.56944e-08 -1.06067 6.17341 -1.2626 0.05672 2.04885 -0.04275 1.2424e-17 0 1.98785e-16 0 0 0 -1.11816e-16 0 1.98785e-16 -0.05417 1.74624 0.17202 1.83034 -7.26365 -2.1136 0.10407 1.76136 -0.12397 3.13707e-16 -9.93923e-17 -0 0 0 0 -1.11816e-16 0 1.98785e-16 3.36241 1.20089 -0.31121 -73.9349 40.8444 -11.5431 4.98301 0.000259156 5.5418e-05 0.978757 0.138998 -2.80211 3.48356 6.01457e-06 -9.38786e-06 8.87087e-05 0 0.000165196 0 0 0 -7.95139e-16 6.36111e-15 -2.38542e-15 0.71526 0 4.44089e-16 -2.38542e-15 -3.18055e-15 -7.95139e-16 0 0 0 -7.95139e-16 6.36111e-15 -2.38542e-15 0 0 0 -1.11816e-16 0 1.98785e-16 -3.1366 1.37405 -0.40465 69.5061 25.3747 19.6423 -5.2419 0.000235456 7.02889e-05 -1.02689 0.39049 14.9147 -3.44417 7.73027e-06 -1.17793e-05 -9.69563e-05 0 -0.000178038 0 0 0 4.77083e-15 6.36111e-15 3.18055e-15 -0.62253 8.88178e-16 2.22045e-16 1.59028e-15 0 -3.18055e-15 0 0 0 4.77083e-15 6.36111e-15 3.18055e-15 
-0.053204 1.99189 0.0458897 0.92999 2.4874 1.75138 0 0 0 -2.98177e-16 0 1.98785e-16 1.36306 -1.79463 3.31937e-08 -19.1715 -29.8685 -0.447419 2.44808 -6.72613 0.000301215 -13.7496 49.6736 22.5787 2.56219 -7.0396 6.48033e-06 -2.22192 1.33326 0.551753 0.15764 -0.43311 2.32255 7.95139e-16 -9.54166e-15 -6.36111e-15 0 0 0 -2.98177e-16 0 1.98785e-16 -1.30552 -1.79463 -1.49382e-08 21.1914 -14.8457 -2.03709 -2.53985 -6.98649 0.0242198 -2.46739 24.2716 -3.66893 -2.56826 -7.05623 4.952e-05 0.715117 -14.2712 5.13589 -0.16473 -0.45259 2.36315 -8.92978e-16 -3.97569e-16 -4.96962e-17 0 0 0 -2.98177e-16 0 1.98785e-16 0.0282699 2.03559 3.56944e-08 -1.07056 6.10716 -1.12728 0.05672 2.04885 -0.04275 -1.2424e-17 0 9.93923e-17 0 0 0 -4.96962e-17 0 9.93923e-17 -0.05417 1.74624 0.17202 1.64595 -7.68348 -1.99973 0.10407 1.76136 -0.12397 5.90142e-17 9.93923e-17 -3.97569e-16 0 0 0 -4.96962e-17 0 9.93923e-17 3.36241 1.20089 -0.31121 -74.7582 40.1453 -10.4677 4.98301 0.000259156 5.5418e-05 0.97869 0.138977 -2.77449 3.48356 6.01457e-06 -9.38786e-06 -0.497753 -0.200281 0.106824 0 0 0 1.98785e-16 3.18055e-15 -9.93923e-16 0.71526 0 -4.44089e-16 -5.96354e-16 0 -5.96354e-16 0 0 0 1.98785e-16 3.18055e-15 -9.93923e-16 0 0 0 -4.96962e-17 0 9.93923e-17 -3.1366 1.37405 -0.40465 66.8403 26.0717 22.5099 -5.2419 0.000235456 7.02889e-05 -1.02799 0.449294 15.4662 -3.44417 7.73027e-06 -1.17793e-05 0.393793 0.574722 0.277654 0 0 0 1.59028e-15 6.36111e-15 -9.54166e-15 -0.62253 0 -4.44089e-16 1.59028e-15 -3.18055e-15 -0 0 0 0 1.59028e-15 6.36111e-15 -9.54166e-15 
-0.0412607 2.01899 0.00166311 0.908323 2.7074 1.64122 0 0 0 3.47873e-16 -3.97569e-16 -0 1.36306 -1.79463 3.31937e-08 -19.6824 -29.8661 -0.711892 2.44808 -6.72613 0.000301215 -10.7431 43.6598 18.8408 2.56219 -7.0396 6.48033e-06 -2.88812 1.15702 0.572649 0.15764 -0.43311 2.32255 0 0 -0 0 0 0 3.47873e-16 -3.97569e-16 -0 -1.30552 -1.79463 -1.49382e-08 21.1176 -13.0478 -3.15118 -2.53985 -6.98649 0.0242198 -3.03971 22.3959 -2.08998 -2.56826 -7.05623 4.952e-05 0.708909 -14.8302 5.19871 -0.16473 -0.45259 2.36315 8.92978e-18 3.97569e-16 -3.72721e-17 0 0 0 3.47873e-16 -3.97569e-16 -0 0.0282699 2.03559 3.56944e-08 -1.06711 5.94434 -0.78828 0.05672 2.04885 -0.04275 0 0 -0 0 0 0 2.48481e-17 -1.59028e-15 -0 -0.05417 1.74624 0.17202 1.22532 -7.87362 -1.7263 0.10407 1.76136 -0.12397 1.56854e-16 0 1.98785e-16 0 0 0 2.48481e-17 -1.59028e-15 -0 3.36241 1.20089 -0.31121 -76.6428 38.3997 -7.96237 4.98301 0.000259156 5.5418e-05 0.978674 0.138811 -2.77054 3.48356 6.01457e-06 -9.38786e-06 -1.66789 -0.686576 0.377845 0 0 0 9.93923e-16 -9.54166e-15 9.93923e-16 0.71526 0 4.44089e-16 -7.95139e-16 -9.54166e-15 3.97569e-16 0 0 0 9.93923e-16 -9.54166e-15 9.93923e-16 0 0 0 2.48481e-17 -1.59028e-15 -0 -3.1366 1.37405 -0.40465 65.1606 26.9276 23.8209 -5.2419 0.000235456 7.02889e-05 -1.03838 0.470419 16.8059 -3.44417 7.73027e-06 -1.17793e-05 1.3036 1.8677 0.92658 0 0 0 6.36111e-15 3.18055e-15 -0 -0.62253 0 0 -3.18055e-15 -3.18055e-15 -3.18055e-15 0 0 0 6.36111e-15 3.18055e-15 -0 
-0.0274771 2.04609 -0.0506627 0.85805 2.7995 1.49656 0 0 0 -3.72721e-16 -7.95139e-16 -1.98785e-16 1.36306 -1.79463 3.31937e-08 -19.8801 -29.862 -0.828445 2.44808 -6.72613 0.000301215 -8.05313 36.0403 15.3317 2.56219 -7.0396 6.48033e-06 -3.69305 0.980786 0.583422 0.15764 -0.43311 2.32255 2.38542e-15 1.59028e-15 -1.59028e-15 0 0 0 -3.72721e-16 -7.95139e-16 -1.98785e-16 -1.30552 -1.79463 -1.49382e-08 21.0224 -10.991 -4.49758 -2.53985 -6.98649 0.0242198 -3.32595 20.5006 -0.910089 -2.56826 -7.05623 4.952e-05 0.65854 -15.4367 5.32564 -0.16473 -0.45259 2.36315 -5.63275e-15 0 1.98785e-16 0 0 0 -3.72721e-16 -7.95139e-16 -1.98785e-16 0.0282699 2.03559 3.56944e-08 -1.00083 5.73894 -0.34601 0.05672 2.04885 -0.04275 -2.48481e-17 3.18055e-15 3.97569e-16 0 0 0 -4.96962e-17 0 1.98785e-16 -0.05417 1.74624 0.17202 0.70066 -7.95087 -1.40419 0.10407 1.76136 -0.12397 2.91188e-17 0 -9.93923e-17 0 0 0 -4.96962e-17 0 1.98785e-16 3.36241 1.20089 -0.31121 -78.7706 36.1649 -5.06269 4.98301 0.000259156 5.5418e-05 0.97865 0.138359 -2.7666 3.48356 6.01457e-06 -9.38786e-06 -3.02565 -1.28702 0.739862 0 0 0 4.41391e-32 6.36111e-15 -3.97569e-16 0.71526 4.44089e-16 0 -4.41391e-32 3.18055e-15 7.95139e-16 0 0 0 4.41391e-32 6.36111e-15 -3.97569e-16 0 0 0 -4.96962e-17 0 1.98785e-16 -3.1366 1.37405 -0.40465 63.8018 27.8359 24.5244 -5.2419 0.000235456 7.02889e-05 -1.05205 0.476467 18.4625 -3.44417 7.73027e-06 -1.17793e-05 2.33805 3.23183 1.67249 0 0 0 -3.18055e-15 -3.18055e-15 3.18055e-15 -0.62253 0 -2.22045e-16 0 3.18055e-15 -0 0 0 0 -3.18055e-15 -3.18055e-15 3.18055e-15 
-0.00995762 2.05841 -0.0935906 0.76009 2.93128 1.26174 0 0 0 -1.98785e-16 0 5.96354e-16 1.36306 -1.79463 3.31937e-08 -20.0117 -29.8538 -1.05287 2.44808 -6.72613 0.000301215 -5.98616 29.0764 12.7607 2.56219 -7.0396 6.48033e-06 -4.38801 0.900674 0.618548 0.15764 -0.43311 2.32255 4.27387e-15 1.59028e-15 -3.18055e-15 0 0 0 -1.98785e-16 0 5.96354e-16 -1.30552 -1.79463 -1.49382e-08 21.0523 -9.4474 -5.68155 -2.53985 -6.98649 0.0242198 -3.28733 19.6359 -0.448059 -2.56826 -7.05623 4.952e-05 0.57928 -16.0593 5.63025 -0.16473 -0.45259 2.36315 7.442e-15 7.95139e-16 3.97569e-16 0 0 0 -1.98785e-16 0 5.96354e-16 0.0282699 2.03559 3.56944e-08 -0.824344 5.54517 0.0993537 0.05672 2.04885 -0.04275 7.45443e-17 1.59028e-15 1.98785e-16 0 0 0 -5.51738e-33 1.59028e-15 1.98785e-16 -0.05417 1.74624 0.17202 0.204577 -8.03232 -1.14426 0.10407 1.76136 -0.12397 2.40716e-17 0 4.96962e-17 0 0 0 -5.51738e-33 1.59028e-15 1.98785e-16 3.36241 1.20089 -0.31121 -80.5934 34.0924 -2.62419 4.98301 0.000259156 5.5418e-05 0.978554 0.13748 -2.73897 3.48356 6.01457e-06 -9.38786e-06 -4.09139 -1.82976 1.1195 0 0 0 1.19271e-15 -1.27222e-14 -2.38542e-15 0.71526 0 0 1.19271e-15 -3.18055e-15 -2.38542e-15 0 0 0 1.19271e-15 -1.27222e-14 -2.38542e-15 0 0 0 -5.51738e-33 1.59028e-15 1.98785e-16 -3.1366 1.37405 -0.40465 62.0403 28.6259 25.5844 -5.2419 0.000235456 7.02889e-05 -1.06396 0.4901 19.9646 -3.44417 7.73027e-06 -1.17793e-05 3.15597 4.02099 2.23904 0 0 0 3.53113e-31 3.18055e-15 -6.36111e-15 -0.62253 0 4.44089e-16 -3.18055e-15 -3.18055e-15 -6.36111e-15 0 0 0 3.53113e-31 3.18055e-15 -6.36111e-15 
